<svg xmlns:svg="http://www.w3.org/2000/svg" xmlns="http://www.w3.org/2000/svg" id="logo" viewBox="0 0 262 69.999998"
     version="1.1" width="262" height="70">
    <defs id="defs4641"></defs>
    <path class="cls-1" d="m 46.970696,36.964354 h -5.15224 V 9.2921417 h 5.15224 z" id="path4643"
          style="fill:#ffffff;stroke-width:0.43332613"></path>
    <path class="cls-1"
          d="m 67.506026,36.964354 h -5.07425 v -11.56115 c 0,-2.69095 -1.84597,-3.84793 -3.76994,-3.84793 -1.92397,0 -3.76993,1.15698 -3.76993,3.84793 v 11.56115 h -5.07425 V 17.135342 h 5.07425 v 1.73331 c 0.86665,-1.34331 2.88595,-2.2663 4.65392,-2.2663 4.0386,0 7.9602,2.76896 7.9602,8.610192 z"
          id="path4645" style="fill:#ffffff;stroke-width:0.43332613"></path>
    <path class="cls-1"
          d="m 80.310816,32.401424 v 4.56293 h -4.88359 c -3.53594,0 -5.07425,-1.88497 -5.07425,-5.07425 V 12.637422 h 5.07425 v 4.49792 h 4.88359 v 4.575932 h -4.88359 v 9.09984 c 0,0.92299 0.22966,1.57731 1.46031,1.57731 z"
          id="path4647" style="fill:#ffffff;stroke-width:0.43332613"></path>
    <path class="cls-1"
          d="m 87.001366,28.401824 v 0.117 c 0,2.34429 1.34764,3.89993 3.76994,3.89993 1.76797,0 2.99861,-0.86665 3.50127,-2.19263 h 5.15225 c -0.81032,4.13827 -3.80894,6.73823 -8.65352,6.73823 -5.68957,0 -8.84419,-3.61394 -8.84419,-9.09985 v -2.53929 c 0,-5.498912 3.15462,-9.099852 8.84419,-9.099852 5.68957,0 8.84418,3.61394 8.84418,9.099852 v 3.07661 z m 0,-4.22926 v 0.039 h 7.50088 v -0.039 c -0.156,-2.07563 -1.46031,-3.38428 -3.73094,-3.38428 -2.27063,0 -3.57494,1.34765 -3.76994,3.38428 z"
          id="path4649" style="fill:#ffffff;stroke-width:0.43332613"></path>
    <path class="cls-1"
          d="m 107.61469,36.964354 h -5.07424 V 17.135342 h 5.07424 v 2.16663 c 0.57633,-1.29998 2.27063,-2.50029 4.61493,-2.50029 h 1.5513 v 4.948592 h -2.38329 c -1.92397,0 -3.76994,1.15264 -3.76994,3.8436 z"
          id="path4651" style="fill:#ffffff;stroke-width:0.43332613"></path>
    <path class="cls-1"
          d="m 116.20322,28.094164 h 5.30824 c 0.30766,2.27063 2.07563,3.76994 4.65392,3.76994 2.2663,0 3.84361,-0.86666 3.84361,-2.69096 0,-1.50364 -0.86665,-2.34863 -2.76896,-2.84695 l -4.53692,-1.23065 c -4.1166,-1.11798 -6.15323,-3.9996 -6.15323,-7.960202 0,-5.38624 4.22926,-7.8475303 8.92218,-7.8475303 5.38191,0 8.72719,3.1546103 9.30351,7.7305303 h -5.30391 c -0.46366,-1.80697 -2.34862,-2.59995 -4.0776,-2.59995 -2.16663,0 -3.69193,0.84498 -3.69193,2.72995 0,1.57731 1.23064,2.2663 2.69095,2.65196 l 4.38526,1.191642 c 4.15127,1.11799 6.3829,3.65294 6.3829,8.1942 0,4.84459 -3.15462,7.79987 -8.99586,7.79987 -5.84123,0 -9.6935,-3.54461 -9.96216,-8.89185 z"
          id="path4653" style="fill:#ffffff;stroke-width:0.43332613"></path>
    <path class="cls-1"
          d="m 147.45903,38.745324 c -1.07465,2.99861 -1.38231,5.19991 -4.92258,5.19991 h -3.76561 v -4.58459 h 2.11463 a 1.2219796,1.2219796 0 0 0 1.34331,-0.86665 l 0.58499,-1.63364 -7.08054,-19.829012 h 5.34724 l 4.42426,12.653132 4.41559,-12.653132 h 5.34725 z"
          id="path4655" style="fill:#ffffff;stroke-width:0.43332613"></path>
    <path class="cls-1"
          d="m 154.80391,30.169794 h 5.07858 c 0.22966,1.53831 2.03663,2.23163 3.69194,2.23163 1.00098,0 2.50029,-0.22966 2.50029,-1.53831 0,-0.80598 -0.57632,-1.26964 -1.7723,-1.5383 l -4.1556,-0.92299 c -2.16663,-0.49832 -4.88359,-2.19263 -4.88359,-6.06656 0,-3.873942 3.50128,-6.114242 7.57454,-6.114242 4.07327,0 7.34922,1.91531 7.70888,6.413232 h -5.19992 c -0.26866,-1.26964 -1.38231,-1.84597 -2.65195,-1.84597 -1.46465,0 -2.30963,0.57633 -2.34863,1.49931 0,0.84499 0.69332,1.26965 1.53831,1.46031 l 4.46326,1.00098 c 2.16663,0.49833 4.80558,1.99764 4.80558,6.11423 0,4.42426 -3.57494,6.11424 -7.73054,6.11424 -4.15559,0 -8.42386,-2.11464 -8.61885,-6.80756 z"
          id="path4657" style="fill:#ffffff;stroke-width:0.43332613"></path>
    <path class="cls-1"
          d="m 190.01599,28.401824 v 0.117 c 0,2.34429 1.34764,3.89993 3.76994,3.89993 1.76797,0 2.99861,-0.86665 3.49694,-2.19263 h 5.15658 c -0.81032,4.13827 -3.80894,6.73823 -8.65352,6.73823 -5.69391,0 -8.84419,-3.61394 -8.84419,-9.09985 v -2.53929 c 0,-5.498912 3.15028,-9.099852 8.84419,-9.099852 5.6939,0 8.82685,3.60094 8.82685,9.099852 v 3.07661 z m 0,-4.22926 v 0.039 h 7.50087 v -0.039 c -0.15599,-2.07563 -1.46464,-3.38428 -3.73093,-3.38428 -2.2663,0 -3.57928,1.34765 -3.76994,3.38428 z"
          id="path4659" style="fill:#ffffff;stroke-width:0.43332613"></path>
    <path class="cls-1"
          d="m 223.01377,36.964354 h -5.07858 v -11.56115 c 0,-2.65195 -1.84597,-3.84793 -3.65294,-3.84793 -1.80697,0 -3.65294,1.19598 -3.65294,3.84793 v 11.56115 h -5.07858 V 17.135342 h 5.07858 v 1.65097 a 5.6895719,5.6895719 0 0 1 4.49793,-2.16663 6.387227,6.387227 0 0 1 5.34724,2.59996 c 1.42131,-1.7333 3.46661,-2.59996 6.19223,-2.59996 5.03525,0 8.72719,2.80362 8.72719,8.610192 v 11.73448 h -5.07425 v -11.56115 c 0,-2.65195 -1.84597,-3.84793 -3.65294,-3.84793 -1.80697,0 -3.65294,1.19598 -3.65294,3.84793 z"
          id="path4661" style="fill:#ffffff;stroke-width:0.43332613"></path>
    <path class="cls-1"
          d="m 237.31787,30.169794 h 5.07425 c 0.23399,1.53831 2.04096,2.23163 3.69193,2.23163 1.00099,0 2.5003,-0.22966 2.5003,-1.53831 0,-0.80598 -0.57633,-1.26964 -1.76797,-1.5383 l -4.1556,-0.92299 c -2.16663,-0.49832 -4.88359,-2.19263 -4.88359,-6.06656 0,-3.873942 3.50128,-6.114242 7.57888,-6.114242 4.0776,0 7.36654,1.92397 7.69154,6.421902 h -5.19992 c -0.27299,-1.26965 -1.38664,-1.84597 -2.65629,-1.84597 -1.46031,0 -2.30529,0.57632 -2.34429,1.49931 0,0.84498 0.69332,1.26964 1.53831,1.46031 l 4.45892,1.00098 c 2.16663,0.49832 4.80992,1.99763 4.80992,6.11423 0.009,4.41559 -3.57061,6.09257 -7.70887,6.09257 -4.13826,0 -8.43686,-2.10164 -8.62752,-6.79456 z"
          id="path4663" style="fill:#ffffff;stroke-width:0.43332613"></path>
    <path class="cls-1"
          d="m 182.79244,32.401424 v 4.56293 h -4.87925 c -3.54027,0 -5.07858,-1.88497 -5.07858,-5.07425 V 12.637422 h 5.07858 v 4.49792 h 4.88359 v 4.575932 h -4.88359 v 9.09984 c 0,0.92299 0.22966,1.57731 1.46031,1.57731 z"
          id="path4665" style="fill:#ffffff;stroke-width:0.43332613"></path>
    <path class="cls-1"
          d="m 258.81518,16.164692 a 3.1676139,3.1676139 0 1 1 -3.16762,3.16328 3.1632806,3.1632806 0 0 1 3.16762,-3.16328 z m 0,5.767572 a 2.5999567,2.5999567 0 1 0 -2.59996,-2.599952 2.5999567,2.5999567 0 0 0 2.59996,2.591292 z m 1.52964,-0.76698 -0.93165,-1.581642 a 0.95765072,0.95765072 0 0 0 0.83198,-1.03565 1.0139831,1.0139831 0 0 0 -1.13965,-1.06165 h -1.49497 v 3.670272 h 0.59799 v -1.555642 h 0.57199 l 0.91432,1.555642 z m -2.16663,-3.076622 h 0.89698 c 0.31633,0 0.52433,0.16033 0.52433,0.47666 0,0.31633 -0.208,0.46799 -0.52433,0.46799 h -0.89698 z"
          id="path4667" style="fill:#ffffff;stroke-width:0.43332613"></path>
    <polygon class="cls-1" points="0,140.17 40.24,160.3 40.24,137.8 20.12,127.74 20.12,22.5 0,12.43 " id="polygon4669"
             style="fill:#333695" transform="matrix(0.43332612,0,0,0.43332612,1.9827858,0.56495167)"></polygon>
    <polygon class="cls-2" points="60.36,20.13 20.12,0 20.12,22.5 40.24,32.56 40.24,137.8 60.36,147.88 "
             id="polygon4671" style="fill:#00b5af"
             transform="matrix(0.43332612,0,0,0.43332612,1.9827858,0.56495167)"></polygon>
    <path class="cls-1"
          d="m 52.205276,60.038964 c -0.12133,2.89462 -1.98896,4.80559 -5.19991,4.80559 -3.30628,0 -5.19991,-2.04963 -5.19991,-5.10025 v -3.97793 c 0,-3.03329 1.89363,-5.10025 5.19991,-5.10025 3.21095,0 5.07858,1.90663 5.19991,4.80558 h -2.66062 c -0.13866,-1.39964 -1.20031,-2.16663 -2.53929,-2.16663 -1.43864,0 -2.56096,0.86666 -2.56096,2.48296 v 3.97794 c 0,1.59464 1.12232,2.47862 2.56096,2.47862 1.33898,0 2.40063,-0.76699 2.53929,-2.16663 z"
          id="path4673" style="fill:#ffffff;stroke-width:0.43332613"></path>
    <path class="cls-1"
          d="m 56.200546,64.645224 h -2.59996 v -10.1615 h 2.59996 v 1.11365 c 0.29466,-0.67166 1.16131,-1.29998 2.36596,-1.29998 h 0.78432 v 2.54362 h -1.21765 a 1.8243029,1.8243029 0 0 0 -1.93263,1.96731 z"
          id="path4675" style="fill:#ffffff;stroke-width:0.43332613"></path>
    <path class="cls-1"
          d="m 62.570436,60.450624 v 0.0607 c 0,1.20031 0.68899,1.98896 1.92831,1.98896 a 1.7766371,1.7766371 0 0 0 1.79397,-1.12231 h 2.63895 c -0.43332,2.12763 -1.94997,3.46661 -4.43292,3.46661 -2.91196,0 -4.52826,-1.85464 -4.52826,-4.66692 v -1.29998 c 0,-2.81662 1.6163,-4.66693 4.52826,-4.66693 2.91195,0 4.52825,1.85031 4.52825,4.66693 v 1.57297 z m 0,-2.16663 v 0.0217 h 3.83927 v -0.0217 a 1.7333045,1.7333045 0 0 0 -1.91096,-1.7333 1.7896369,1.7896369 0 0 0 -1.92831,1.7333 z"
          id="path4677" style="fill:#ffffff;stroke-width:0.43332613"></path>
    <path class="cls-1"
          d="m 76.779206,58.028334 a 1.9673006,1.9673006 0 0 0 -3.68327,-0.35533 h -2.59996 c 0.43332,-2.1233 1.9283,-3.46661 4.41126,-3.46661 2.91195,0 4.52826,1.8503 4.52826,4.66692 v 5.76757 h -2.59996 v -1.15698 c -0.47233,0.76699 -1.27831,1.36065 -2.83395,1.36065 -2.32696,0 -3.70494,-1.14398 -3.70494,-3.03328 0,-1.47331 0.51132,-2.36163 1.93263,-3.03329 1.00099,-0.47666 3.03329,-0.63265 4.56726,-0.74965 z m -3.89994,3.50561 c 0,0.49399 0.377,1.02698 1.53831,1.02698 1.33898,0 2.40063,-0.74965 2.40063,-2.0323 v -0.33366 c -1.47765,0.0997 -2.89462,0.21666 -3.38861,0.47232 a 0.81898636,0.81898636 0 0 0 -0.55033,0.86666 z"
          id="path4679" style="fill:#ffffff;stroke-width:0.43332613"></path>
    <path class="cls-1"
          d="m 86.992696,62.300924 v 2.3443 h -2.50462 c -1.8113,0 -2.59996,-0.96199 -2.59996,-2.59996 v -5.19991 h -1.43864 v -2.3443 h 1.43864 v -2.30096 h 2.59996 v 2.30096 h 2.50462 v 2.3443 h -2.50462 v 4.66692 c 0,0.47233 0.12133,0.80599 0.74965,0.80599 z"
          id="path4681" style="fill:#ffffff;stroke-width:0.43332613"></path>
    <path class="cls-1"
          d="m 91.018296,53.166414 h -2.59995 v -2.3053 h 2.59995 z m 0,11.47881 h -2.59995 v -10.1615 h 2.59995 z"
          id="path4683" style="fill:#ffffff;stroke-width:0.43332613"></path>
    <path class="cls-1"
          d="m 99.346826,54.483724 h 2.734294 l -3.661614,10.1615 h -2.67795 l -3.66594,-10.1615 h 2.73862 l 2.2663,6.47823 z"
          id="path4685" style="fill:#ffffff;stroke-width:0.43332613"></path>
    <path class="cls-1"
          d="m 104.91074,60.450624 v 0.0607 c 0,1.20031 0.68899,1.98896 1.9283,1.98896 a 1.7723038,1.7723038 0 0 0 1.79397,-1.12231 h 2.63896 c -0.43333,2.12763 -1.94997,3.46661 -4.43293,3.46661 -2.91195,0 -4.52826,-1.85464 -4.52826,-4.66692 v -1.29998 c 0,-2.81662 1.61631,-4.66693 4.52826,-4.66693 2.91195,0 4.53259,1.85031 4.53259,4.66693 v 1.57297 z m 0,-2.16663 v 0.0217 h 3.83927 v -0.0217 a 1.7333045,1.7333045 0 0 0 -1.91097,-1.7333 1.7896369,1.7896369 0 0 0 -1.9283,1.7333 z"
          id="path4687" style="fill:#ffffff;stroke-width:0.43332613"></path>
    <path class="cls-1"
          d="m 120.91781,64.844554 c -2.06697,0 -4.07327,-1.42131 -4.07327,-4.41126 v -1.80264 c 0,-2.99428 2.0063,-4.41126 4.07327,-4.41126 a 3.0332828,3.0332828 0 0 1 2.38329,1.16132 v -4.5196 h 2.59996 v 13.78411 h -2.59996 v -0.96199 a 3.0332828,3.0332828 0 0 1 -2.38329,1.16132 z m -1.47331,-4.51093 a 1.9283012,1.9283012 0 1 0 3.8566,0 v -1.6163 a 1.9283012,1.9283012 0 1 0 -3.8566,0 z"
          id="path4689" style="fill:#ffffff;stroke-width:0.43332613"></path>
    <path class="cls-1"
          d="m 133.80926,58.028334 a 1.9673006,1.9673006 0 0 0 -3.68327,-0.35533 h -2.59996 c 0.41166,-2.1233 1.9283,-3.46661 4.41126,-3.46661 2.91195,0 4.52826,1.8503 4.52826,4.66692 v 5.76757 h -2.59996 v -1.15698 c -0.47233,0.76699 -1.27831,1.36065 -2.83395,1.36065 -2.32696,0 -3.70494,-1.14398 -3.70494,-3.03328 0,-1.47331 0.51132,-2.36163 1.93263,-3.03329 1.00099,-0.47666 3.03329,-0.63265 4.56726,-0.74965 z m -3.89994,3.50561 c 0,0.49399 0.377,1.02698 1.53831,1.02698 1.33898,0 2.40063,-0.74965 2.40063,-2.0323 v -0.33366 c -1.47765,0.0997 -2.89462,0.21666 -3.38861,0.47232 a 0.82331962,0.82331962 0 0 0 -0.55033,0.86666 z"
          id="path4691" style="fill:#ffffff;stroke-width:0.43332613"></path>
    <path class="cls-1"
          d="m 143.86676,62.300924 v 2.3443 h -2.50029 c -1.81131,0 -2.59996,-0.96199 -2.59996,-2.59996 v -5.19991 h -1.43864 v -2.3443 h 1.43864 v -2.30096 h 2.59996 v 2.30096 h 2.50029 v 2.3443 h -2.50029 v 4.66692 c 0,0.47233 0.11699,0.80599 0.74965,0.80599 z"
          id="path4693" style="fill:#ffffff;stroke-width:0.43332613"></path>
    <path class="cls-1"
          d="m 151.28097,58.028334 a 1.9673006,1.9673006 0 0 0 -3.68328,-0.35533 h -2.61729 c 0.43333,-2.1233 1.93264,-3.46661 4.41126,-3.46661 2.91629,0 4.52826,1.8503 4.52826,4.66692 v 5.76757 h -2.59995 v -1.15698 c -0.47233,0.76699 -1.29998,1.36065 -2.83829,1.36065 -2.32263,0 -3.70061,-1.14398 -3.70061,-3.03328 0,-1.47331 0.51133,-2.36163 1.92831,-3.03329 1.00531,-0.47666 3.03328,-0.63265 4.57159,-0.74965 z m -3.89994,3.50561 c 0,0.49399 0.37266,1.02698 1.53398,1.02698 1.33897,0 2.40496,-0.74965 2.40496,-2.0323 v -0.33366 c -1.47765,0.0997 -2.89462,0.21666 -3.38861,0.47232 a 0.81898636,0.81898636 0 0 0 -0.55033,0.86666 z"
          id="path4695" style="fill:#ffffff;stroke-width:0.43332613"></path>
    <path class="cls-1"
          d="m 164.91341,62.300924 v 2.3443 h -2.5133 c -1.8113,0 -2.59995,-0.96199 -2.59995,-2.59996 v -5.19991 h -1.43864 v -2.3443 h 1.43864 v -2.30096 h 2.59995 v 2.30096 h 2.5133 v 2.3443 h -2.5133 v 4.66692 c 0,0.47233 0.117,0.80599 0.74533,0.80599 z"
          id="path4697" style="fill:#ffffff;stroke-width:0.43332613"></path>
    <path class="cls-1"
          d="m 168.53601,60.450624 v 0.0607 c 0,1.20031 0.68899,1.98896 1.93264,1.98896 a 1.7679706,1.7679706 0 0 0 1.78963,-1.12231 h 2.62163 c -0.43333,2.12763 -1.94997,3.46661 -4.4286,3.46661 -2.91628,0 -4.53259,-1.85464 -4.53259,-4.66692 v -1.29998 c 0,-2.81662 1.61631,-4.66693 4.53259,-4.66693 2.91629,0 4.52826,1.85031 4.52826,4.66693 v 1.57297 z m 0,-2.16663 v 0.0217 h 3.83927 v -0.0217 a 1.7333045,1.7333045 0 0 0 -1.90663,-1.7333 1.7939701,1.7939701 0 0 0 -1.93264,1.7333 z"
          id="path4699" style="fill:#ffffff;stroke-width:0.43332613"></path>
    <path class="cls-1"
          d="m 185.34473,60.944614 c -0.27299,2.3833 -1.8503,3.89994 -4.48926,3.89994 -2.91195,0 -4.52825,-1.85464 -4.52825,-4.66692 v -1.29998 c 0,-2.81662 1.6163,-4.66693 4.52825,-4.66693 2.63896,0 4.21627,1.51665 4.48926,3.89994 h -2.59995 a 1.759304,1.759304 0 0 0 -1.88931,-1.55564 c -1.23931,0 -1.9283,0.78865 -1.9283,1.98897 v 1.97163 c 0,1.20031 0.68899,1.98897 1.9283,1.98897 a 1.7333045,1.7333045 0 0 0 1.88931,-1.55564 z"
          id="path4701" style="fill:#ffffff;stroke-width:0.43332613"></path>
    <path class="cls-1"
          d="m 195.91789,64.645224 h -2.59996 v -5.9279 a 1.9326345,1.9326345 0 1 0 -3.86093,0 v 5.9279 h -2.59996 v -13.78411 h 2.59996 v 4.51093 a 3.0332828,3.0332828 0 0 1 2.38329,-1.16132 c 2.06697,0 4.0776,1.41698 4.0776,4.41126 z"
          id="path4703" style="fill:#ffffff;stroke-width:0.43332613"></path>
    <path class="cls-1"
          d="m 206.75104,64.645224 h -2.59995 v -5.9279 a 1.9326345,1.9326345 0 1 0 -3.86094,0 v 5.9279 h -2.59996 v -10.1615 h 2.59996 v 0.86665 a 3.0332828,3.0332828 0 0 1 2.38329,-1.16131 c 2.06697,0 4.0776,1.41698 4.0776,4.41126 z"
          id="path4705" style="fill:#ffffff;stroke-width:0.43332613"></path>
    <path class="cls-1"
          d="m 208.30668,58.877654 c 0,-2.81662 1.61198,-4.66693 4.52826,-4.66693 2.91629,0 4.51093,1.85031 4.51093,4.66693 v 1.29998 c 0,2.81228 -1.61198,4.66692 -4.52826,4.66692 -2.91629,0 -4.52826,-1.85464 -4.52826,-4.66692 z m 6.45656,-0.338 c 0,-1.20031 -0.68899,-1.98896 -1.9283,-1.98896 -1.23931,0 -1.9283,0.78865 -1.9283,1.98896 v 1.97164 c 0,1.20031 0.68899,1.98896 1.9283,1.98896 1.23931,0 1.9283,-0.78865 1.9283,-1.98896 z"
          id="path4707" style="fill:#ffffff;stroke-width:0.43332613"></path>
    <path class="cls-1"
          d="m 222.68444,62.300924 v 2.3443 h -1.26097 c -1.81131,0 -2.59996,-0.96199 -2.59996,-2.59996 v -11.18415 h 2.59996 v 10.63383 c 0,0.47232 0.11699,0.80598 0.74532,0.80598 z"
          id="path4709" style="fill:#ffffff;stroke-width:0.43332613"></path>
    <path class="cls-1"
          d="m 223.52943,58.877654 c 0,-2.81662 1.61631,-4.66693 4.52826,-4.66693 2.91195,0 4.52826,1.85031 4.52826,4.66693 v 1.29998 c 0,2.81228 -1.61198,4.66692 -4.52826,4.66692 -2.91629,0 -4.52826,-1.85464 -4.52826,-4.66692 z m 6.46089,-0.338 c 0,-1.20031 -0.68899,-1.98896 -1.93263,-1.98896 -1.24365,0 -1.9283,0.78865 -1.9283,1.98896 v 1.97164 c 0,1.20031 0.68899,1.98896 1.9283,1.98896 1.23931,0 1.93263,-0.78865 1.93263,-1.98896 z"
          id="path4711" style="fill:#ffffff;stroke-width:0.43332613"></path>
    <path class="cls-1"
          d="m 236.50755,64.697224 a 1.7333045,1.7333045 0 0 0 1.87197,1.41697 c 1.23931,0 1.9283,-0.78865 1.9283,-1.98896 v -1.16132 a 3.0332828,3.0332828 0 0 1 -2.3833,1.16565 c -2.06696,0 -4.07326,-1.42131 -4.07326,-4.41126 v -1.08765 c 0,-2.99428 2.0063,-4.41126 4.07326,-4.41126 a 3.0332828,3.0332828 0 0 1 2.3833,1.16132 v -0.86666 h 2.59995 v 9.31651 c 0,2.81662 -1.6163,4.66693 -4.52825,4.66693 -2.57829,0 -4.1556,-1.45598 -4.47193,-3.76127 z m -0.0607,-5.10025 a 1.9326345,1.9326345 0 1 0 3.86094,0 v -0.87965 a 1.9326345,1.9326345 0 1 0 -3.86094,0 z"
          id="path4713" style="fill:#ffffff;stroke-width:0.43332613"></path>
    <path class="cls-1"
          d="m 249.66333,65.611544 c -0.55033,1.53397 -0.71066,2.65628 -2.52196,2.65628 h -1.9283 v -2.33996 h 1.08331 a 0.62832287,0.62832287 0 0 0 0.68899,-0.45499 l 0.29466,-0.82765 -3.6226,-10.1615 h 2.72129 l 2.26196,6.47823 2.26629,-6.47823 h 2.73863 z"
          id="path4715" style="fill:#ffffff;stroke-width:0.43332613"></path>
</svg>