<?xml version="1.0" encoding="utf-8"?>
<!-- Generator: Adobe Illustrator 23.0.0, SVG Export Plug-In . SVG Version: 6.00 Build 0)  -->
<svg version="1.1" id="Capa_1" xmlns="http://www.w3.org/2000/svg" xmlns:xlink="http://www.w3.org/1999/xlink" x="0px" y="0px"
	 viewBox="0 0 328.04 245.56" style="enable-background:new 0 0 328.04 245.56;" xml:space="preserve">
<style type="text/css">
	.st0{fill:#2CACA8;}
	.st1{fill:#2E338C;}
	.st2{fill:#FFFFFF;}
</style>
<g>
	<path class="st2" d="M309.49,76.83C236.97-23.34,107.18-20.02,29.29,54.77c-37.56,36.03-39,81.78-4.26,120.54
		c39.93,44.59,90.85,67.23,147.53,70.25c53.21-1.37,96.55-18.33,130.35-55.92C333.74,155.38,336.53,114.15,309.49,76.83z
		 M171.94,218.88c11.15-13.95,7.98-27.03-8.38-34.76c-8.72-4.1-17.94-4.7-27.11-2.71c-15.93,3.46-20.98,14.79-13.78,29.68
		c-6.03-1.11-13.44-0.86-15.83-7.7c-2.79-8.04,0.18-15.63,5.81-21.94c19.05-21.4,64.8-14.51,76.9,11.55
		C197.52,210.14,191.11,219.56,171.94,218.88z M225.47,205.7c-4.46,7.13-16.46,11.17-25.42,8.56c27.21-22.43,25.88-52.37-3.94-71.76
		c-26.42-17.18-55.18-19.95-84.54-8.84c-30.97,11.73-38.46,34.94-20.32,65.87c-10.57-7.11-21.68-9.83-23.03-22.93
		c-1.59-15.23,2.67-28.23,13.46-38.86c15.63-15.45,35.14-21.86,56.61-22.89c30.46-1.45,57.79,6.37,79.41,28.92
		C235.2,162.05,237.87,185.96,225.47,205.7z M274.82,173.77c-3.24,11.37-23.75,26.68-34.8,26.52c31.77-30.22,29.96-68.62-4.6-97.64
		C193.44,67.35,123.17,62.87,77.06,92.61c-16.12,10.41-28.33,23.77-32.05,43.46c-1.85,9.73,0.84,18.95,3.88,29.3
		c-18.59-16.44-21.86-30.88-11.37-50.92C52.4,86,77.86,71.05,107.58,63.31c55.3-14.39,105.33-4.34,146.59,36.81
		C274.42,120.3,283.04,145.07,274.82,173.77z"/>
</g>
</svg>
