<?xml version="1.0" encoding="utf-8"?>
<!-- Generator: Adobe Illustrator 23.0.0, SVG Export Plug-In . SVG Version: 6.00 Build 0)  -->
<svg version="1.1" id="Capa_1" xmlns="http://www.w3.org/2000/svg" xmlns:xlink="http://www.w3.org/1999/xlink" x="0px" y="0px"
	 viewBox="0 0 995.95 245.56" style="enable-background:new 0 0 995.95 245.56;" xml:space="preserve">
<style type="text/css">
	.st0{fill:#2CACA8;}
	.st1{fill:#2E338C;}
	.st2{fill:#FFFFFF;}
</style>
<g>
	<path class="st0" d="M30.51,33.44c1.06-9.95,0.28-19.93,0.4-29.9c0.04-3.37,0.42-4.5,4.01-2.67c18.09,9.2,36.26,18.24,54.47,27.21
		c2.59,1.28,3.61,2.81,3.61,5.74c-0.08,62.75-0.09,125.5,0,188.25c0.01,4.25-0.99,4.93-4.72,2.93c-6.89-3.7-13.95-7.08-20.94-10.58
		c-5.27-2.64-5.28-2.63-5.29,3.5c-0.01,8.16,0.06,16.31-0.09,24.47c-0.02,0.99,1.49,3.23-1.39,3.17c-1.6-4.16-0.92-8.5-0.91-12.77
		c0.02-7.1-0.47-14.21,0.35-21.29c0.78-2.6,0.62-5.28,0.62-7.93c0.02-48.47-0.06-96.93,0.11-145.4c0.02-5.73-1.64-9.24-7.06-11.63
		c-7.45-3.28-14.71-7.05-21.89-10.94C31.02,35.08,30.19,34.6,30.51,33.44z"/>
	<path class="st1" d="M61.39,211.46c0.05,10.3,0.09,20.59,0.14,30.89c0,1.16,0.05,2.35-0.97,3.21
		c-18.89-9.48-37.76-19.02-56.71-28.4c-2.71-1.34-3.85-2.85-3.84-6.02C0.1,148.18,0.08,85.23,0.09,22.27c0-1.12,0.13-2.23,0.23-4.03
		c10.36,5.21,20.27,10.2,30.18,15.19c-0.09,0.37,0.05,0.6,0.42,0.67c2.49,2.44,1.74,5.6,1.75,8.51
		c0.05,47.07,0.03,94.14,0.03,141.22c0,1.66,0.13,3.34-0.02,4.99c-0.41,4.56,1.45,7.46,5.67,9.38c6.05,2.75,11.96,5.83,17.87,8.88
		C58.27,208.13,60.57,208.94,61.39,211.46z"/>
	<path class="st2" d="M821.02,67.84c6.36-5.58,12.81-8.56,20.6-7.9c6.39,0.54,12.08,2.64,16.44,7.42c2.09,2.3,3.24,2.57,5.8,0.27
		c12.76-11.47,37.13-10.22,48.89,2.17c5.82,6.13,8.42,13.61,8.56,21.81c0.26,15.83,0.01,31.66,0.19,47.49
		c0.04,3.28-1.24,3.92-4.1,3.78c-3.99-0.19-8.01-0.27-11.99,0.02c-3.65,0.27-4.4-1.23-4.36-4.59c0.16-14.16,0.14-28.33,0.03-42.49
		c-0.07-8.56-4.65-14.39-11.9-15.6c-10.11-1.69-17.78,4.58-17.9,14.99c-0.16,14.33-0.2,28.66,0.04,42.99
		c0.06,3.82-1.05,4.97-4.75,4.69c-3.98-0.3-8-0.23-11.99-0.02c-3.13,0.17-3.93-1.06-3.91-4.06c0.13-14.33,0.16-28.66-0.02-42.99
		c-0.11-9.01-4.76-14.66-12.31-15.68c-9.99-1.34-17.18,4.67-17.36,15.08c-0.24,13.99-0.29,28,0.03,41.98
		c0.11,4.7-1.32,6.12-5.85,5.69c-3.96-0.38-7.99-0.14-11.99-0.06c-2.12,0.04-2.89-0.79-2.88-2.95c0.05-24.99,0.05-49.99,0.01-74.98
		c0-2.19,0.86-2.92,2.96-2.87c4,0.09,8.02,0.26,11.99-0.05C819.1,61.68,821.72,62.34,821.02,67.84z"/>
	<path class="st2" d="M448.15,106.78c1.17,0,2.35,0.14,3.49-0.03c4.48-0.66,6.88,0.6,8.76,5.4c3.97,10.11,20.97,13.63,29.29,6.71
		c5.58-4.64,4.54-13.48-2.07-17.28c-3.51-2.02-7.51-2.67-11.34-3.78c-4.8-1.38-9.67-2.51-14.42-4.05
		c-16.12-5.2-24.46-17.46-23.35-34.07c1.03-15.5,10.91-26.12,27.55-28.91c10.57-1.77,20.96-0.97,30.45,4.77
		c8.49,5.14,13.21,12.91,15.41,22.4c0.47,2.04,0.6,3.53-2.34,3.44c-5.33-0.16-10.66-0.14-15.99,0c-2.1,0.05-2.74-1.16-3.67-2.66
		c-4.92-8.01-18.39-10.78-26.13-5.43c-3.29,2.27-4.77,5.51-4.45,9.47c0.35,4.27,2.81,7.22,6.71,8.51
		c6.63,2.19,13.39,4.01,20.11,5.92c4.17,1.19,8.34,2.36,12.15,4.49c12.68,7.08,18.29,21.32,14.87,37.61
		c-2.74,13.01-13.23,21.74-27.93,23.09c-9.04,0.83-17.99,0.62-26.5-3.12c-12.55-5.52-19.2-15.41-21.4-28.68
		c-0.46-2.79,0.27-4.06,3.29-3.83C443.14,106.93,445.65,106.78,448.15,106.78z"/>
	<path class="st2" d="M741.18,107.73c7.14,0.29,14.31,0.08,21.47,0.08c3.5,0,7,0.13,10.49-0.03c4.94-0.23,11.88,2.21,14.29-0.99
		c2.5-3.33,0.95-9.9,0.75-15.03c-0.7-18-11.42-30.21-28.78-33.06c-21.74-3.57-39.07,7.95-42.14,28.15
		c-1.26,8.26-1.3,16.61-0.3,24.89c2.4,19.83,15.01,30.93,34.94,31.03c17.59,0.1,29.51-7.81,34.43-22.58c1.16-3.48,1.21-5.3-3.3-4.87
		c-3.46,0.33-6.99,0.24-10.48,0.01c-3.56-0.23-5.89,0.71-8.23,3.86c-4.14,5.59-10.47,6-16.8,4.49c-5.77-1.38-8.9-5.48-10.15-11.15
		C736.67,109.36,737.19,107.57,741.18,107.73z M737.5,87.54c1.53-6.34,6.95-10.5,14.36-10.76c7.53-0.27,13.18,3.38,15.07,9.67
		c0.86,2.87,0.83,4.83-3.13,4.56c-3.79-0.25-7.62-0.05-11.43-0.05c-3.98,0-7.96-0.1-11.93,0.03
		C737.82,91.08,736.82,90.33,737.5,87.54z"/>
	<path class="st2" d="M321.94,107.76c7.32,0.18,14.65,0.05,21.97,0.05c7.32,0,14.65-0.06,21.97,0.03c2.38,0.04,3.74-0.4,3.6-3.24
		c-0.24-4.98,0.09-10-0.3-14.97c-1.33-16.95-11.93-28.27-28.7-30.96c-21.57-3.45-38.33,7.4-41.91,27.8
		c-1.64,9.34-1.56,18.98,0.03,28.35c2.51,14.78,11.23,24.12,26.15,27.2c5.28,1.09,10.62,0.88,15.92,0.31
		c13.08-1.42,23.87-10.75,27.21-23.15c0.75-2.79,0.35-4-2.84-3.84c-4.15,0.2-8.33,0.21-12.48-0.01c-2.93-0.16-4.7,0.67-6.5,3.25
		c-4.17,5.95-10.47,6.61-17.03,5.17c-6.28-1.37-9.34-5.86-10.6-11.89C317.8,108.84,318.71,107.67,321.94,107.76z M318.67,87.9
		c1.48-6.71,6.92-10.96,14.6-11.11c7.86-0.16,13.33,3.72,15.05,10.38c0.74,2.85,0.15,3.98-2.94,3.83
		c-3.98-0.18-7.98-0.04-11.96-0.05c-4.16,0-8.31-0.04-12.47,0.01C318.67,90.99,318.17,90.14,318.67,87.9z"/>
	<path class="st2" d="M556.44,112.46C561.88,96.82,567.27,82,572.12,67c1.45-4.5,3.54-6.08,8.12-5.59c3.95,0.42,7.99,0.2,11.97,0.05
		c3-0.12,3.26,0.87,2.31,3.51c-11.42,31.76-22.72,63.55-34.08,95.33c-2.6,7.27-7.83,10.91-15.55,10.95
		c-4.16,0.02-8.33-0.13-12.48,0.11c-3.05,0.18-3.66-1.19-3.51-3.83c0.17-3.15,0.3-6.35-0.02-9.48c-0.42-4.03,0.77-5.52,5.1-5.35
		c7.6,0.29,8.05-0.49,10.51-7.74c0.86-2.55,0.06-4.55-0.7-6.7c-8.5-23.98-16.93-47.99-25.62-71.9c-1.53-4.21-0.62-5.29,3.58-4.88
		c5.41,0.52,12.13-2.18,15.92,1.06c3.52,3.01,4.05,9.54,5.82,14.55c3.98,11.29,7.9,22.59,11.87,33.89
		C555.42,111.22,555.68,111.44,556.44,112.46z"/>
	<path class="st2" d="M187.15,69.13c8.77-8.65,17.54-10.62,27.25-8.44c14.7,3.3,24.25,15.65,24.58,32.35
		c0.3,15.32-0.02,30.66,0.15,45.98c0.04,3.23-1.14,4.03-4.06,3.85c-5.3-0.34-12.09,2.11-15.51-0.89c-3.52-3.08-1-10.02-1.1-15.25
		c-0.2-10.33,0.01-20.66-0.09-30.99c-0.1-9.85-5.59-15.58-14.84-15.75c-9.54-0.18-15.57,5.49-15.72,15.43
		c-0.22,14.32-0.18,28.66-0.01,42.98c0.04,3.46-0.88,4.85-4.45,4.48c-5.26-0.54-12.14,2.23-15.34-1.17c-2.54-2.7-0.79-9.5-0.8-14.48
		c-0.04-20.16,0.08-40.32-0.1-60.48c-0.03-3.68,0.83-5.13,4.67-4.75c3.3,0.33,6.66,0.13,9.99,0.05
		C185.42,61.95,189.34,61.36,187.15,69.13z"/>
	<path class="st2" d="M982.44,84.27c-2.17,0-4.34-0.11-6.49,0.03c-2.21,0.15-3.51-0.53-4.76-2.58c-2.98-4.88-11.02-6.55-15.98-3.67
		c-1.97,1.15-3.38,2.72-3.24,5.21c0.17,2.96,2.08,4.53,4.65,5.19c6.45,1.64,12.97,3,19.43,4.62c15.09,3.78,22.48,15.87,19.09,31.08
		c-1.34,6-4.73,10.59-9.91,13.83c-13.3,8.31-37.52,5.51-48.51-5.5c-3.79-3.8-5.78-8.43-6.87-13.6c-0.54-2.53-0.13-3.74,2.79-3.65
		c4.83,0.15,9.66,0.07,14.49,0.02c1.6-0.01,2.55,0.38,3.53,1.95c3.95,6.39,13.92,9.17,20.77,6.09c2.31-1.04,3.84-2.63,3.8-5.32
		c-0.04-3.19-2.06-4.9-4.8-5.61c-6.93-1.79-13.98-3.1-20.85-5.06c-13.79-3.93-21.06-16.82-17.39-30.3c1.82-6.69,6-11.56,12.08-14.54
		c11.41-5.61,23.14-5.83,34.74-0.6c8.29,3.74,12.28,10.84,14,19.47c0.44,2.21-0.33,3.05-2.56,2.97
		C987.78,84.19,985.11,84.27,982.44,84.27z"/>
	<path class="st2" d="M604.63,115.27c2.16,0,4.33,0.08,6.49-0.02c2-0.09,3.18,0.49,4.35,2.4c3.75,6.12,14.57,8.76,20.98,5.45
		c2.29-1.18,3.61-3.01,3.34-5.61c-0.3-2.83-2.18-4.47-4.79-5.12c-7.1-1.78-14.31-3.13-21.32-5.19
		c-14.68-4.3-21.75-19.64-15.74-33.46c2.23-5.12,5.98-8.88,10.88-11.26c11.42-5.56,23.14-5.87,34.72-0.6
		c8.03,3.66,12.24,10.4,13.84,18.96c0.49,2.6-0.14,3.69-2.97,3.51c-3.32-0.21-6.66-0.08-9.99-0.04c-3.93,0.05-7.45,0.46-10.02-4.17
		c-2.25-4.05-11.15-4.49-15.13-1.75c-1.71,1.18-3.07,2.74-2.84,4.95c0.29,2.81,2.15,4.49,4.77,5.15c6.62,1.65,13.3,3.06,19.91,4.74
		c15.18,3.86,22.64,17.26,18.24,32.35c-1.63,5.6-5.03,9.74-9.91,12.65c-12.43,7.43-34.73,5.56-45.87-3.6
		c-4.7-3.87-7.47-8.81-8.97-14.62c-0.83-3.21-0.5-5.19,3.56-4.75C600.28,115.46,602.46,115.27,604.63,115.27z"/>
	<path class="st2" d="M667.29,85.74c0-12.65,0.09-25.29-0.07-37.94c-0.04-3.17,0.72-4.54,4.13-4.31c3.98,0.27,8,0.25,11.97,0
		c3.38-0.21,4.89,0.73,4.58,4.38c-0.29,3.47,0.07,6.99-0.11,10.48c-0.15,2.79,0.8,3.89,3.69,3.75c4.15-0.2,8.33,0.11,12.47-0.1
		c2.9-0.15,3.79,0.94,3.66,3.72c-0.18,3.82-0.21,7.66,0.01,11.48c0.15,2.77-1.01,3.37-3.5,3.27c-4.15-0.16-8.32,0.08-12.48-0.08
		c-2.66-0.1-3.9,0.53-3.86,3.54c0.15,11.31,0.09,22.63,0.04,33.95c-0.02,4.35,2,6.47,6.34,6.46c3.49-0.01,6.99,0.1,10.48,0
		c2.13-0.06,3.11,0.76,2.93,2.9c-0.01,0.17-0.01,0.33,0,0.5c0.9,15.1,0.9,15.11-14.18,15.09c-2.66,0-5.33-0.03-7.98-0.22
		c-11.93-0.84-17.91-7.13-18.08-19.42c-0.17-12.48-0.04-24.96-0.04-37.44C667.3,85.74,667.3,85.74,667.29,85.74z"/>
	<path class="st2" d="M250.77,86.02c0-12.82,0.08-25.65-0.06-38.47c-0.03-2.96,0.68-4.22,3.89-4.04c5.15,0.28,11.55-1.72,15.15,0.67
		c4.01,2.66,1.01,9.5,1.38,14.49c0.19,2.55,0.84,3.55,3.47,3.44c4.16-0.17,8.33,0.1,12.49-0.09c2.88-0.13,4.3,0.55,4.07,3.81
		c-0.32,4.62,1.45,10.6-0.83,13.55c-2.45,3.17-8.74,1.18-13.27,0.92c-4.93-0.29-6.14,1.28-5.95,6.06
		c0.4,10.31,0.09,20.65,0.14,30.97c0.03,5.44,1.39,6.77,6.75,7.01c0.33,0.01,0.67-0.02,1,0.02c3.91,0.43,10.12-1.8,11.28,0.94
		c1.92,4.54,0.75,10.4,0.78,15.71c0.01,1.97-1.62,1.81-2.91,1.8c-6.66-0.05-13.33,0.12-19.97-0.29c-11-0.68-16.95-6.73-17.26-18.02
		c-0.35-12.81-0.08-25.65-0.08-38.47C250.81,86.02,250.79,86.02,250.77,86.02z"/>
	<path class="st2" d="M134.76,86.2c0-17.32,0.07-34.64-0.06-51.96c-0.02-3.18,0.76-4.5,4.14-4.26c3.98,0.28,8.01,0.33,11.98-0.02
		c3.83-0.34,4.7,1.04,4.67,4.72c-0.16,24.98-0.08,49.96-0.08,74.94c0,9.66-0.11,19.32,0.07,28.97c0.06,3.14-0.63,4.55-4.09,4.3
		c-4.14-0.29-8.33-0.26-12.48-0.01c-3.3,0.2-4.24-0.96-4.21-4.23C134.84,121.17,134.76,103.68,134.76,86.2z"/>
	<path class="st2" d="M401.81,70.26c6.49-7.95,13.74-9.92,21.91-9.79c2.61,0.04,3.69,0.85,3.41,3.46c-0.11,0.99-0.01,2-0.01,3
		c-0.03,4.16,1.33,9.13-0.48,12.27c-1.93,3.36-7.3,0.88-11.12,1.46c-8.37,1.28-13.29,6.63-13.36,15.35
		c-0.12,14.16-0.16,28.32,0.04,42.48c0.05,3.58-1.09,4.74-4.52,4.38c-5.24-0.55-12.08,2.27-15.35-1.17
		c-2.97-3.14-0.8-9.85-0.82-14.98c-0.08-19.99,0.06-39.98-0.11-59.97c-0.03-3.71,0.92-5.16,4.73-4.74c2.8,0.31,5.68,0.28,8.49,0.01
		C399.57,61.54,403.7,61.75,401.81,70.26z"/>
	<path class="st2" d="M395.68,207.47c-1.25-1.52-1.37-2.37-0.34-4.21c5.09-9.06,0.18-17.83-10.14-18.28
		c-4.82-0.22-9.66,0.12-14.46-0.16c-3.26-0.19-3.93,1.17-3.84,4.06c0.18,5.49,0.05,10.98,0.06,16.46c0,5.99,0.1,11.98-0.05,17.96
		c-0.07,2.61,0.79,3.49,3.4,3.4c5.31-0.18,10.64-0.04,15.96-0.12c4.62-0.08,8.59-1.65,10.7-6.01
		C399.17,216.04,398.97,211.47,395.68,207.47z M374.7,195.45c0.16-2.04,0.74-3.05,2.91-2.94c2.13,0.1,4.28-0.03,6.43,0.04
		c2.93,0.09,5.24,1.07,5.28,4.52c0.05,3.45-2.2,4.48-5.17,4.6c-0.99,0.04-1.98,0.01-2.97,0.01
		C374.37,201.75,374.24,201.55,374.7,195.45z M385.79,218.94c-1.82,0.16-3.69-0.13-5.48,0.15c-4.79,0.77-5.71-1.42-5.71-5.82
		c0.01-6.36,4.67-2.75,6.35-3.83c2.06,0,3.39-0.09,4.72,0.02c2.86,0.23,4.64,1.62,4.7,4.71
		C390.43,217.29,388.66,218.7,385.79,218.94z"/>
	<path class="st2" d="M856.32,211.34c0-3.17,0-6.33,0-9.5c0.01-5.68,1.86-7.31,7.09-5.15c1.83,0.76,2.62,0.23,3.86-0.32
		c3.3-1.46,6.63-1.43,9.5,0.7c2.02,1.5,3.27,1.51,5.53,0.21c9.54-5.52,19.91,0.33,20.22,11.24c0.15,5.16-0.08,10.34,0.09,15.5
		c0.1,2.98-1.56,3.13-3.8,3.1c-2.14-0.03-3.98,0.05-3.87-3.02c0.16-4.66,0.05-9.33,0.03-14c-0.02-3.99-1.4-7.08-5.94-6.97
		c-4.49,0.11-5.77,3.21-5.72,7.2c0.05,4.33-0.11,8.67,0.05,13c0.1,2.66-0.48,3.99-3.53,3.83c-2.6-0.14-4.52-0.13-4.33-3.65
		c0.26-4.65,0.1-9.33,0.05-14c-0.04-3.88-1.67-6.55-5.93-6.38c-3.9,0.16-5.47,2.67-5.47,6.36c-0.01,4.67-0.16,9.34,0.04,14
		c0.13,2.92-1.01,3.69-3.77,3.67c-2.81-0.01-4.37-0.51-4.16-3.82C856.51,219.35,856.32,215.34,856.32,211.34z"/>
	<path class="st2" d="M663.14,205.78c0-3-0.3-6.03,0.06-8.98c0.83-6.77,5.58-11.11,12.71-12.03c7.97-1.03,14.61,2.12,17.02,8.35
		c0.57,1.48,2.42,3.92,0.24,4.75c-2.13,0.8-5.43,1.81-7.21-1.06c-2.51-4.05-6.01-5.28-10.26-3.91c-4.69,1.51-5.17,5.56-5.05,9.79
		c0.1,3.5-0.13,7.02,0.19,10.49c0.35,3.75,2.64,6.04,6.45,6.52c3.62,0.45,6.69-0.53,8.34-4.05c1.28-2.73,1.32-5.06-2.77-4.61
		c-3.18,0.35-4.34-0.7-4.37-4.11c-0.04-3.89,2.12-4.15,4.75-3.65c3.65,0.7,8.86-2.54,10.77,1.77c2.97,6.69-0.75,17.05-6.21,20.15
		c-5.76,3.28-11.83,3.35-17.72,0.39c-5.58-2.81-7.24-7.92-7.17-13.81c0.02-2,0-4,0-6C662.99,205.78,663.07,205.78,663.14,205.78z"/>
	<path class="st2" d="M134.76,205.76c0-5.67,0.18-11.34-0.06-16.99c-0.15-3.46,1.62-3.57,4.27-3.68c3.02-0.12,3.86,1.14,3.55,3.82
		c-0.06,0.49-0.01,1-0.01,1.5c0.05,12.19,0.05,12.07,12.26,11.69c3.01-0.09,3.69-1.22,3.53-3.87c-0.17-2.82,0.15-5.68-0.08-8.49
		c-0.27-3.29,0.54-4.68,4.28-4.71c3.94-0.04,3.74,2.04,3.73,4.7c-0.05,11.16-0.13,22.33,0.05,33.49c0.05,3.11-0.94,4-3.97,3.95
		c-2.86-0.05-4.53-0.6-4.05-3.86c0.12-0.82,0.02-1.66,0.02-2.5c0.01-11.95-1.15-12.88-13.22-11.16c-1.95,0.28-2.57,1.08-2.54,2.87
		c0.04,3.17,0.03,6.33-0.01,9.5c-0.03,2.56,0.8,5.21-3.73,5.22c-4.66,0.01-4.03-2.67-4.02-5.47
		C134.77,216.43,134.76,211.1,134.76,205.76z"/>
	<path class="st2" d="M290.57,198.06c11.05-5.52,19.48-0.43,19.67,10.85c0.08,4.99-0.13,9.99,0.07,14.98
		c0.11,2.83-1.16,3.39-3.57,3.21c-2.11-0.16-4.46,0.48-4.34-3.06c0.17-4.82,0.03-9.65,0.03-14.48c0-3.92-1.63-6.47-5.84-6.48
		c-4.22-0.01-5.88,2.66-5.98,6.46c-0.12,4.66-0.18,9.33,0.01,13.98c0.12,2.94-1.08,3.68-3.8,3.63c-2.54-0.05-3.97-0.38-3.93-3.49
		c0.16-11.65,0.15-23.3,0.01-34.95c-0.04-2.94,1.07-3.66,3.79-3.62c2.55,0.04,4.16,0.36,3.93,3.47
		C290.41,191.5,290.57,194.45,290.57,198.06z"/>
	<path class="st2" d="M234.42,216.04c0-2.82,0.14-5.65-0.03-8.46c-0.3-5.25-2.65-9.35-7.75-11.14c-5.46-1.91-10.88-1.68-15.39,2.49
		c-1.73,1.6-4.36,4.09-2.49,6.12c1.39,1.5,4.96,1.41,7.33-0.45c0.65-0.51,1.2-1.22,1.92-1.54c2.44-1.06,4.84-1.09,6.97,0.79
		c0.76,0.67,1.45,1.44,1.09,2.56c-0.33,1.01-1.31,0.79-2.09,0.9c-3.11,0.49-6.3,0.69-9.33,1.5c-4.09,1.09-7.17,3.48-7.56,8.16
		c-0.28,3.3,0.18,6.41,3.18,8.4c4.2,2.77,8.73,2.88,13.31,1.03c1.4-0.56,1.99-1.56,3.99,0.04c3.41,2.72,6.9,0.42,6.94-3.92
		c0.02-2.16,0.01-4.32,0.01-6.47C234.49,216.05,234.45,216.04,234.42,216.04z M226.75,215.75c-0.92,3.84-3.85,5.03-7.58,5.14
		c-2.13-0.15-4.76-0.73-4.17-3.45c1.08-4.95,5.86-2.92,9.04-3.85C225.5,213.16,227.29,213.49,226.75,215.75z"/>
	<path class="st2" d="M536.67,195.48c-8.89-1.99-16.34,2.65-17.34,11.05c-0.37,3.11-0.34,6.34,0.02,9.45
		c0.77,6.77,5.55,10.95,12.44,11.31c7.65,0.4,12.27-2.84,13.94-9.98c-3.27-0.3-6.29-1.06-9.22,1.76c-2.23,2.15-5.29,1.77-7.74-0.26
		c-1.15-0.94-2.06-2.35-1.42-3.96c0.56-1.39,2-0.86,3.07-0.87c4.32-0.07,8.64-0.02,12.96-0.04c1.31-0.01,2.54,0.13,3.06-1.7
		C548.41,205.3,543.67,197.04,536.67,195.48z M538.14,206.02c-0.25,3.3-3.57,0.76-5.3,1.83c-1.77-1.05-5.09,1.4-5.37-1.75
		c-0.25-2.81,2.56-3.96,5.32-3.99C535.54,202.08,538.35,203.11,538.14,206.02z"/>
	<path class="st2" d="M190.91,195.74c-8.71-1.9-15.63,2.47-17.07,10.78c-0.55,3.13-0.57,6.28-0.09,9.42
		c1.57,10.33,13,15.36,21.67,9.44c2.59-1.77,5.92-4.62,4.12-7.46c-1.13-1.76-5.66-1.44-8.36,1.29c-2.07,2.1-4.91,1.91-7.4,0.43
		c-1.47-0.88-2.58-2.5-2.28-4.16c0.37-2.13,2.43-1.05,3.74-1.18c1.81-0.18,3.65-0.04,5.48-0.05h7.48c1.37,0,2.46-0.05,2.87-1.91
		C202.64,205.19,197.88,197.26,190.91,195.74z M192.7,206.57c-0.4,3.12-3.93,0.57-5.89,1.69c-1.64-1.1-5.03,1.49-5.06-1.97
		c-0.02-2.62,2.57-4,5.41-4.01C190.2,202.27,193.08,203.69,192.7,206.57z"/>
	<path class="st2" d="M927.18,195.83c-8.43-2.06-15.54,2.01-17.3,9.88c-0.77,3.46-0.76,6.99-0.24,10.43
		c1.54,10.26,13.37,15.16,21.9,9.11c2.48-1.75,5.6-4.79,4.02-7.12c-1.38-2.04-5.65-1.72-8.28,0.97c-1.83,1.88-4.24,1.84-6.54,1.07
		c-2.07-0.69-3.52-2.41-3.26-4.52c0.3-2.49,2.65-1.15,4.08-1.34c1.64-0.22,3.33-0.05,4.99-0.06c2.5,0,4.99-0.01,7.49,0
		c1.42,0.01,2.46-0.17,2.87-1.97C938.49,205.36,933.91,197.48,927.18,195.83z M928.59,206.27c-0.24,3.48-3.78,0.81-5.55,1.98
		c-1.83-1.01-5.19,1.33-5.4-1.69c-0.21-2.89,2.6-4.28,5.62-4.27C926.08,202.3,928.78,203.63,928.59,206.27z"/>
	<path class="st2" d="M780.28,195.55c-9.42-1.26-15.78,3.87-16.17,13.08c-0.07,1.82-0.07,3.65,0,5.48
		c0.38,11.15,11.35,17.27,21.07,11.71c2.98-1.7,6.46-4.83,4.92-7.62c-1.26-2.26-5.7-1.46-8.62,1.1c-2.5,2.19-5.56,1.9-8.12-0.45
		c-1.01-0.93-1.63-2.2-1.18-3.59c0.5-1.52,1.95-0.93,3.01-0.97c2.15-0.09,4.32-0.03,6.48-0.03c2.32-0.01,4.65-0.03,6.98,0
		c1.44,0.02,2.37-0.19,2.72-2.01C792.92,204.2,787.95,196.59,780.28,195.55z M783.1,206.41c-0.26,3.2-3.55,0.82-5.36,1.85
		c-1.7-1.26-5.33,1.56-5.41-2.14c-0.05-2.71,2.75-3.85,5.55-3.81C780.71,202.35,783.33,203.64,783.1,206.41z"/>
	<path class="st2" d="M944.06,211.55c0-3.33-0.01-6.66,0-10c0.01-5.36,1.86-6.92,6.83-4.9c1.69,0.69,2.53,0.46,3.91-0.12
		c7.68-3.21,15.67,1.44,16.36,9.84c0.49,5.96,0.06,11.99,0.21,17.98c0.07,2.82-1.61,2.84-3.56,2.71c-1.86-0.12-4.26,0.69-4.23-2.61
		c0.05-4.66,0.05-9.33-0.01-13.99c-0.07-5.19-1.97-7.54-5.97-7.38c-4.9,0.2-5.89,3.49-5.85,7.59c0.04,4.33-0.14,8.67,0.06,12.99
		c0.15,3.13-1.44,3.44-3.98,3.48c-2.7,0.04-3.98-0.62-3.82-3.61C944.23,219.55,944.06,215.55,944.06,211.55z"/>
	<path class="st2" d="M727.78,208.24c-0.91-9.75-8.53-14.93-17.99-12.3c-6.49,1.8-9.41,6.65-9.4,15.61c0,0.66-0.02,1.33,0,1.99
		c0.29,8.92,5.03,13.86,13.41,13.97c8.63,0.11,13.43-4.41,14.02-13.3C727.96,212.22,727.97,210.21,727.78,208.24z M719.11,217.95
		c-1,2.47-3.47,2.97-5.9,2.58c-5.56-0.91-5-5.25-4.93-9.22c0-1.33-0.18-2.68,0.03-3.96c0.49-2.93,2.18-4.73,5.29-4.95
		c2.32-0.16,4.53,0.38,5.46,2.58C720.84,209.22,720.82,213.7,719.11,217.95z"/>
	<path class="st2" d="M485.02,211.15c0-3.33-0.01-6.65,0-9.98c0.01-5.33,1.42-6.6,6.45-4.96c1.72,0.56,2.8,0.65,4.46-0.04
		c7.65-3.18,15.56,1.6,16.22,10.04c0.46,5.95,0.03,11.97,0.19,17.95c0.08,3.05-1.94,2.51-3.67,2.48c-1.87-0.03-4.22,0.66-4.16-2.64
		c0.08-4.82-0.05-9.65,0.02-14.47c0.05-3.89-1.43-6.64-5.57-6.79c-4.37-0.16-6.2,2.55-6.22,6.69c-0.02,4.32-0.15,8.65,0.03,12.97
		c0.12,3.06-0.57,4.43-4.1,4.39c-3.36-0.03-3.82-1.4-3.68-4.18C485.16,218.81,485.02,214.97,485.02,211.15z"/>
	<path class="st2" d="M821.2,211.39c0-3.32,0-6.65,0-9.97c0.01-5.26,1.11-6.47,5.99-5.01c2.38,0.71,4.02,0.4,6.16-0.39
		c6.45-2.36,14,2.16,14.76,9.29c0.69,6.41,0.29,12.94,0.36,19.41c0.03,2.98-2.2,2.28-3.9,2.34c-1.87,0.07-3.74,0.21-3.69-2.63
		c0.09-4.82,0.04-9.64,0.01-14.46c-0.03-4.01-1.54-6.93-6.03-6.88c-4.48,0.05-5.91,2.92-5.85,6.99c0.07,4.32-0.13,8.65,0.06,12.96
		c0.13,2.92-0.65,4.08-3.84,4.14c-3.43,0.06-4.29-1.19-4.1-4.34C821.37,219.04,821.2,215.21,821.2,211.39z"/>
	<path class="st2" d="M450.16,195.18c2.9-0.05,5.69,0.47,7.92,2.41c2,1.74,4.59,4.27,2.76,6.59c-1.34,1.7-4.98,1.47-7.29-0.25
		c-1.24-0.92-2.3-1.87-3.93-1.79c-1.55,0.08-3.14,0.23-3.37,2.18c-0.21,1.72,1.21,2.22,2.5,2.57c2.25,0.6,4.55,0.98,6.78,1.62
		c4.81,1.39,7.37,4.79,7.25,9.44c-0.12,4.79-2.68,7.78-7.82,8.87c-4.91,1.04-9.64,0.61-13.72-2.62c-2.1-1.66-4.68-4.38-2.93-6.54
		c1.42-1.74,5.26-1.65,7.6,0.63c1.86,1.8,4,2.24,6.42,1.88c1.22-0.18,2.31-0.68,2.46-2.06c0.15-1.37-0.78-2.17-1.95-2.52
		c-1.59-0.48-3.22-0.81-4.84-1.18c-7.07-1.62-10.5-5.48-9.74-10.96C438.98,198.31,443.55,195.13,450.16,195.18z"/>
	<path class="st2" d="M564.26,227.29c-2.91-0.09-6.5-0.73-9.34-3.38c-1.83-1.71-4.26-4.24-2.5-6.25c1.4-1.61,5.02-1.63,7.25,0.4
		c1.72,1.56,3.53,2.42,5.83,2.23c1.55-0.12,3.18-0.36,3.34-2.26c0.13-1.59-1.16-2.25-2.53-2.59c-2.26-0.56-4.55-0.99-6.77-1.65
		c-4.83-1.44-7.53-4.94-7.28-9.42c0.27-4.84,3.2-7.57,7.61-8.68c4.32-1.08,8.68-0.99,12.34,1.97c2.05,1.66,4.54,4.33,2.73,6.59
		c-1.3,1.63-5,1.41-7.32-0.3c-1.23-0.91-2.28-1.91-3.92-1.8c-1.53,0.1-3.15,0.19-3.39,2.15c-0.21,1.73,1.18,2.22,2.48,2.59
		c1.44,0.41,2.91,0.7,4.36,1.04c7.11,1.67,10.37,5.38,9.63,11C576.08,224.38,572.06,227.25,564.26,227.29z"/>
	<path class="st2" d="M593.41,227.29c-3.04-0.04-6.74-0.8-9.68-3.62c-1.71-1.64-3.91-4.16-2.36-5.91c1.55-1.76,5.01-1.68,7.22,0.21
		c2.06,1.77,4.16,2.64,6.81,2.23c1.22-0.19,2.31-0.66,2.49-2.03c0.18-1.38-0.76-2.22-1.91-2.55c-2.39-0.68-4.86-1.09-7.25-1.78
		c-4.85-1.4-7.62-4.88-7.41-9.34c0.23-4.81,3.06-7.64,7.5-8.77c4.49-1.14,8.96-1.03,12.74,2.16c1.94,1.64,4.1,4.35,2.54,6.26
		c-1.45,1.76-5.05,1.53-7.3-0.14c-1.56-1.16-2.96-2.07-4.91-1.83c-1.23,0.15-2.28,0.64-2.53,1.99c-0.27,1.46,0.75,2.15,1.9,2.5
		c1.74,0.53,3.53,0.92,5.31,1.33c6.72,1.58,9.95,5.31,9.32,10.78C605.25,224.24,601.22,227.2,593.41,227.29z"/>
	<path class="st2" d="M431.38,211.6c0,3.33,0.01,6.67,0,10c-0.01,4.94-2.69,6.94-6.94,4.5c-1.67-0.96-2.23-0.76-3.63-0.07
		c-6.18,3.02-13.35,0.17-15.39-6.37c-2.22-7.13-0.98-14.57-0.91-21.86c0.03-3.06,3.08-1.55,4.82-1.83c2.13-0.35,2.94,0.73,2.89,2.86
		c-0.1,4.5,0.03,9-0.03,13.5c-0.06,3.95,1.02,7.03,5.58,7.31c3.84,0.24,5.87-2.33,5.96-7.45c0.08-4.33,0.18-8.67-0.02-13
		c-0.15-3.29,1.74-3.27,4.1-3.31c2.37-0.04,3.75,0.36,3.62,3.22C431.23,203.26,431.38,207.44,431.38,211.6z"/>
	<path class="st2" d="M745.88,215.92c2.17-6.11,3.98-11.23,5.83-16.34c0.55-1.51,0.73-3.44,3.04-3.33c1.8,0.09,4.06-0.82,5.27,0.55
		c1.14,1.3-0.36,3.15-0.89,4.67c-2.57,7.38-5.36,14.69-7.85,22.11c-0.88,2.62-2.12,3.74-4.99,3.57c-2.64-0.16-4.63-0.19-5.66-3.4
		c-2.43-7.61-5.44-15.03-7.91-22.62c-0.45-1.37-3.35-3.86,0.11-4.68c2.48-0.59,6-1.68,7.3,2.75
		C741.65,204.46,743.67,209.58,745.88,215.92z"/>
	<path class="st2" d="M261.38,212.57c0-2.16,0.03-4.32-0.02-6.47c-0.03-1.27,0.25-2.9-1.78-2.85c-2.49,0.06-2.53-1.53-2.47-3.31
		c0.06-1.78-0.43-3.81,2.5-3.77c2.01,0.03,1.88-1.65,1.72-2.89c-0.41-3.37,1.06-4.16,4.25-4.19c3.37-0.04,3.96,1.48,3.64,4.21
		c-0.37,3.12,1.74,3.08,3.82,2.91c2.59-0.22,3.95,0.41,3.94,3.48c-0.01,2.97-1.19,3.9-3.86,3.52c-3.03-0.44-4.22,0.76-3.94,3.85
		c0.22,2.47,0.2,4.99,0.01,7.46c-0.3,3.76,0.5,6.23,5.04,5.64c2.82-0.36,2.6,1.7,2.69,3.59c0.1,2.19-0.46,3.36-3,3.38
		C263.2,227.22,260.68,226.12,261.38,212.57z"/>
	<path class="st2" d="M980.18,212.7c0-2.16,0.02-4.32-0.01-6.48c-0.02-1.3,0.22-2.95-1.73-2.96c-2.84-0.02-2.55-1.92-2.59-3.77
		c-0.04-1.82,0.13-3.26,2.54-3.34c2.29-0.08,1.87-2.05,1.74-3.41c-0.27-2.93,1.01-3.76,3.76-3.61c2.31,0.12,4.53-0.06,4.08,3.26
		c-0.43,3.16,1.04,4.26,3.99,3.81c3.06-0.47,3.49,1.17,3.54,3.77c0.05,2.78-1.14,3.58-3.58,3.21c-3.59-0.56-4.19,1.39-3.97,4.37
		c0.18,2.31,0.19,4.66,0,6.97c-0.3,3.78,0.55,6.18,5.09,5.63c3.06-0.37,2.24,2.11,2.37,3.77c0.15,1.86-0.17,3.18-2.6,3.18
		C982.86,227.09,979.33,227.08,980.18,212.7z"/>
	<path class="st2" d="M242.2,203.86c0-4.5,0.03-8.99-0.01-13.49c-0.03-2.86-0.54-5.42,4.07-5.38c4.85,0.04,3.8,2.99,3.81,5.63
		c0.04,8.16-0.01,16.32,0.04,24.48c0.01,2.06-0.52,4.16,2.53,5.17c2.38,0.79,1.34,3.51,1.11,5.33c-0.27,2.13-2.31,1.46-3.68,1.43
		c-5.14-0.11-7.68-2.54-7.82-7.67C242.09,214.19,242.2,209.03,242.2,203.86z"/>
	<path class="st2" d="M638.15,206.5c0,5.48-0.14,10.97,0.05,16.44c0.11,3.12-0.72,4.45-4.14,4.4c-3.14-0.05-3.93-1.17-3.89-4.11
		c0.13-11.46,0.15-22.92-0.02-34.37c-0.05-3.22,1.26-3.83,4.12-3.87c3.1-0.04,4.03,1.1,3.93,4.08
		C638.03,194.87,638.16,200.69,638.15,206.5z"/>
	<path class="st2" d="M342.38,206.56c-0.01,5.65-0.11,11.31,0.04,16.96c0.07,2.77-0.83,3.83-3.7,3.79c-2.8-0.04-4.34-0.62-4.3-3.85
		c0.12-11.47,0.11-22.95,0.01-34.42c-0.02-3.01,1.1-4.02,4.12-4.06c3.18-0.05,3.97,1.21,3.88,4.13
		C342.27,194.92,342.39,200.75,342.38,206.56z"/>
	<path class="st2" d="M798.47,211.71c0-3.49-0.01-6.98,0-10.47c0.02-4.88,1.8-6.6,6.21-4.81c2.31,0.94,3.72,0.96,5.78-0.1
		c1.53-0.79,3.9-1.65,5.01,0.13c0.83,1.33,0.58,3.53,0.37,5.29c-0.26,2.21-2.26,1.44-3.61,1.55c-4.08,0.33-5.88,2.67-5.92,6.57
		c-0.04,4.65-0.2,9.31,0.05,13.95c0.18,3.29-1.58,3.31-3.99,3.33c-2.52,0.02-4.13-0.34-3.96-3.48
		C798.63,219.69,798.47,215.69,798.47,211.71z"/>
	<path class="st2" d="M476.85,211.33c0,3.97-0.16,7.96,0.05,11.92c0.17,3.08-1.33,3.57-3.9,3.48c-2.3-0.08-4.11,0.08-4.02-3.26
		c0.22-8.11,0.2-16.23,0.01-24.34c-0.08-3.3,1.73-3.19,4.05-3.28c2.65-0.1,4,0.57,3.85,3.56
		C476.7,203.37,476.85,207.36,476.85,211.33z"/>
	<path class="st2" d="M472.8,191.48c-2.9,0.65-3.77-0.5-3.83-3.38c-0.06-3.33,1.79-3.18,4.1-3.28c2.71-0.12,3.82,0.66,3.85,3.6
		C476.96,191.81,475.1,191.83,472.8,191.48z"/>
</g>
</svg>
