<?xml version="1.0" encoding="utf-8"?>
<!-- Generator: Adobe Illustrator 23.0.0, SVG Export Plug-In . SVG Version: 6.00 Build 0)  -->
<svg version="1.1" id="Capa_1" xmlns="http://www.w3.org/2000/svg" xmlns:xlink="http://www.w3.org/1999/xlink" x="0px" y="0px"
	 viewBox="0 0 307.8 245.56" style="enable-background:new 0 0 307.8 245.56;" xml:space="preserve">
<style type="text/css">
	.st0{fill:#2CACA8;}
	.st1{fill:#2E338C;}
	.st2{fill:#FFFFFF;}
</style>
<g>
	<path class="st2" d="M101.6,217.45c10.2,0.81,20.04,0.01,29.75-1.88c6.94-1.35,13.79-1.2,20.71-0.22
		c13.01,1.85,26.08,2.68,39.23,2.32c5.74-0.16,11.49-0.03,17.33-0.23c-10.72-5.01-18.94-12.54-23.77-23.35
		c-4.82-10.8-5.54-21.94-1.65-33.21c6.47-18.73,24.94-31.24,44.63-30.33c19.95,0.93,36.95,14.62,41.89,33.68
		c5.17,19.93-3.57,41.13-23.59,51.78c0.8,0.08,1.27,0.21,1.72,0.17c8.17-0.83,16.33-1.87,24.52-2.44c3.81-0.27,7.7,0.17,11.51,0.63
		c7.91,0.96,15.79,2.15,23.91,3.28c0,4.75,0,9.4,0,14.05c0,4.57,0,9.14,0,13.86H0v-27.91c5.56-0.99,11.16-1.98,16.75-2.97
		c1.41-0.25,3.69-0.72,5.09-0.99c4.11-0.81,8.13-0.67,12.2,0.98c6.52,2.64,13.37,3.45,20.41,3.03c4.16-0.25,8.34-0.05,12.62-0.24
		c-10.83-4.99-19.08-12.62-23.92-23.51c-4.81-10.82-5.44-21.96-1.56-33.23c6.37-18.46,24.91-30.99,44.54-30.16
		c20.05,0.85,36.69,14.29,41.97,33.84C132.94,182.25,126.09,206.27,101.6,217.45z M224.11,155.36c-9.96,0.95-17.85,9.18-18.38,19.17
		c-0.63,11.81,8.82,21.41,20.58,21.28c10.95-0.13,20.13-9.31,20.13-20.12C246.43,163.79,236.17,154.21,224.11,155.36z M84.5,155.27
		c-11.14-0.1-20.44,8.94-20.48,19.88c-0.04,11.37,8.8,20.52,19.98,20.66c11.32,0.14,20.59-8.78,20.69-19.91
		C104.79,164.42,95.93,155.37,84.5,155.27z"/>
	<path class="st2" d="M275.56,34.12v12.22c0,0.27-0.22,0.5-0.5,0.5c-0.86,0-1.65,0-2.43,0c-22.3,0-44.6,0.03-66.9-0.05
		c-2.11-0.01-3.11,0.5-3.91,2.62c-11.57,31.01-23.26,61.97-34.93,92.94c-0.2,0.54-0.41,1.07-0.65,1.72
		c-0.1,0.25-0.38,0.38-0.63,0.29c-6.29-2.24-12.49-4.45-18.7-6.67c-43.54-15.6-87.09-31.21-130.64-46.77
		c-1.63-0.58-2.33-1.29-2.3-3.15c0.12-7.91,0.05-15.82,0.05-23.98c0-0.26,0.21-0.48,0.47-0.5c1-0.06,1.92-0.13,2.84-0.14
		c52.43-0.01,104.86-0.03,157.3,0.05c2.52,0,3.7-0.7,4.55-3.11c2.91-8.25,6.1-16.39,9.12-24.6c0.49-1.33,1.06-2,2.66-1.99
		c27.68,0.06,55.36,0.04,83.04,0.05c0.35,0,0.7,0.04,1.12,0.08C275.36,33.66,275.56,33.87,275.56,34.12z M174.32,78.19H29.54
		c-0.17,0-0.33,0.09-0.42,0.24h0c-0.13,0.21-0.08,0.49,0.11,0.64c0.6,0.48,1.18,1.04,1.87,1.29c10.86,3.92,21.73,7.81,32.63,11.61
		c1.53,0.54,3.15,0.81,4.77,0.81c32.7,0.05,65.41,0.04,98.11,0.04h2.6c0.21,0,0.39-0.13,0.46-0.32c1.69-4.52,3.36-8.98,5.11-13.64
		C174.91,78.54,174.67,78.19,174.32,78.19z M157.41,125.1c2.18-5.81,4.3-11.48,6.49-17.31c0.12-0.32-0.12-0.67-0.46-0.67H109.9
		c-0.13,0.75-0.1,0.57-0.23,1.33c15.61,5.61,31.23,11.23,47.12,16.95C157.03,125.48,157.32,125.35,157.41,125.1z"/>
	<path class="st2" d="M154.55,0.43c0.58-0.58,1.52-0.58,2.09,0c7.04,7.07,13.57,13.97,20.58,20.35c3.64,3.32,4.39,6.05,2.32,10.59
		c-3.11,6.79-5.44,13.94-7.99,20.97c-0.59,1.63-1.31,2.32-3.17,2.31c-49.58-0.06-99.15-0.04-148.73-0.05c-0.01,0-0.01,0-0.02,0
		c-1.15,0-1.84-1.27-1.24-2.25c4.65-7.6,9.19-15,13.81-22.55c0.37-0.61,1.13-0.86,1.79-0.61c4.79,1.84,9.54,3.66,14.28,5.48
		c3.31,1.27,6.64,2.49,9.91,3.86c1.29,0.54,2.06,0.36,3-0.7c5.35-6.03,10.79-11.99,16.2-17.96c0.53-0.58,1.03-1.25,1.69-1.63
		c9.19-5.32,18.4-10.6,27.72-15.95c0.62-0.36,1.41-0.22,1.87,0.34c6.32,7.59,12.58,15.1,18.81,22.56c0.56,0.67,1.56,0.71,2.18,0.1
		C137.97,17,146.2,8.78,154.55,0.43z"/>
	<path class="st2" d="M281.79,102.21c0,0.54,0.44,0.99,0.98,0.99h2.76h2.42c0.54,0,0.98,0.44,0.98,0.98v76.16
		c0,0.54-0.44,0.98-0.98,0.98h-10.04c-0.54,0-0.98-0.44-0.98-0.99c0-0.56,0-1.1,0-1.63c0-8.54,0.02-17.08-0.03-25.62
		c-0.01-1.05-0.23-2.22-0.73-3.13c-9.1-16.77-23.06-27-41.91-29.93c-14.46-2.24-27.91,1.08-40.1,9.24c-0.52,0.35-1.04,0.7-1.6,1.08
		c-0.63,0.43-1.49,0.01-1.54-0.76c-0.01-0.16-0.01-0.31-0.01-0.46c-0.01-8.13-0.03-16.27,0.02-24.4c0.01-1.17,0.22-2.32,0.63-3.41
		c5.32-14.27,10.7-28.51,16.03-42.77c0.45-1.22,0.95-1.9,2.47-1.9c15.73,0.07,31.47,0.04,47.2,0.05c0.09,0,0.19,0.01,0.31,0.02
		c0.42,0.05,0.77,0.38,0.84,0.8c0.27,1.49,0.55,3.03,0.86,4.69c0.11,0.6-0.35,1.16-0.97,1.16h-29.05c-0.54,0-0.98,0.44-0.98,0.98
		v25.12c0,0.54,0.44,0.98,0.98,0.98h5.79c0.54,0,0.99-0.44,0.98-0.98c0-1.56-0.02-3.17,0.01-4.77c0.07-5.45,2.4-7.78,7.77-7.78
		c10.2,0,20.4-0.01,30.6,0c4.75,0,7.02,2.02,7.18,6.81c0.19,5.53,0.1,11.07,0.13,16.6C281.79,100.92,281.79,101.51,281.79,102.21z
		 M275.09,103.09c0.54,0,0.98-0.44,0.98-0.99c0-6.15,0-12.21,0-18.27c0-1.57-1.15-1.4-2.18-1.4c-8.3,0-16.61,0-24.91,0
		c-7.64,0-7.64,0-7.14,7.62c0,0.04,0.02,0.08,0.04,0.12c0.16,0.32,0.5,0.5,0.86,0.5c0.59,0,1.25,0,1.9,0
		c5.77,0,11.55,0.04,17.32-0.03c1.67-0.02,2.52,0.27,2.74,2.24c0.34,3.15,1.04,6.26,1.64,9.4c0.09,0.47,0.49,0.8,0.97,0.8H275.09z
		 M219.91,89.54V64.51c0-0.51-0.39-0.94-0.9-0.98c-3.78-0.3-3.87-0.05-5.25,3.61c-1.97,5.23-3.94,10.46-5.9,15.69
		c-0.78,2.08-1.54,4.16-2.36,6.38c-0.24,0.64,0.24,1.33,0.92,1.33h12.51C219.47,90.53,219.91,90.09,219.91,89.54z"/>
	<path class="st2" d="M128.97,148.55c0.18-0.32,0.2-0.41,0.26-0.46c1.95-1.95,3.63-4.92,5.94-5.56c2.15-0.6,5.02,1.2,7.53,2.08
		c10.18,3.6,20.34,7.26,30.5,10.9c1.19,0.43,2.19,0.74,2.18,2.5c-0.09,13.05-0.05,26.1-0.06,39.15c0,0.38-0.07,0.76-0.12,1.28
		c-9.38,0-18.68,0-28.19,0c0-3.59,0-7.19,0-11.1c-3.95,0-7.69,0-11.71,0C138.04,173.42,136.17,160.53,128.97,148.55z"/>
</g>
</svg>
